<svg xmlns="http://www.w3.org/2000/svg" xmlns:svg="http://www.w3.org/2000/svg" id="ahceebeb" class="css-8aabad" preserveAspectRatio="xMidYMid meet" version="1.1" viewBox="0 0 370.429 89.796"><defs id="SvgjsDefs4935"><linearGradient id="SvgjsLinearGradient4942"><stop id="SvgjsStop4943" offset="0" stop-color="#2d388a"/><stop id="SvgjsStop4944" offset="1" stop-color="#00aeef"/></linearGradient></defs><g id="SvgjsG4936" fill="#111" featurekey="symbolFeature-0" transform="matrix(1.1224489795918369,0,0,1.1224489795918369,-16.836734693877553,-11.22448979591837)"><path id="path6" d="M50,10L15,30v40l35,20l34.99-19.994L85,69.99V30L50,10z M50,17.699L74.89,31.92l-6.732,3.848L50,25.397L31.846,35.771 l-6.738-3.851L50,17.699z M64.795,41.546v13.059L53.369,48.08V35.02L64.795,41.546z M46.631,35.02v13.057l-11.423,6.527V41.546 L46.631,35.02z M46.631,80.377L21.735,66.152v-28.46l6.734,3.848v20.761L46.631,72.68V80.377z M38.571,60.377l11.426-6.529 l11.429,6.529L50,66.904L38.571,60.377z M78.265,66.152L53.369,80.377V72.68L71.53,62.305V41.54l6.734-3.848V66.152z"/></g><g id="SvgjsG4937" fill="#111" featurekey="nameFeature-0" transform="matrix(1.3361452979034956,0,0,1.3361452979034956,95.18316696177344,-4.269342915388039)"><path id="path9" d="M20.571 11.428999999999998 l7.4286 0 l0 28.571 l-6.5714 0 l-11.143 -16 l0 16 l-7.4286 0 l0 -28.571 l6.5714 0 l11.143 15.886 l0 -15.886 z M58.00014285714286 17.714 l-16.857 0 l0 4.8571 l14.571 0 l0 6.2857 l-14.571 0 l0 4.8571 l16.857 0 l0 6.2857 l-20 0 l-4.2857 -4.2857 l0 -24.286 l24.286 0 l0 6.2857 z M62.85714285714286 40 l0 -3.4286 l7.8857 -10.857 l-7.8857 -10.857 l0 -3.4286 l6.5714 0 l6.2857 9.1429 l6.2857 -9.1429 l6.5714 0 l0 3.4286 l-7.8857 10.857 l7.8857 10.857 l0 3.4286 l-6.5714 0 l-6.2857 -9.1429 l-6.2857 9.1429 l-6.5714 0 z M91.42856857142857 17.714 l0 -6.2857 l24.286 0 l0 6.2857 l-8.4571 0 l0 22.286 l-7.4286 0 l0 -22.286 l-8.4 0 z M137.42842857142858 17.714 l-10.571 0 l0 16 l10.857 0 l0 -4.8571 l-6.5714 0 l0 -6.2857 l14 0 l0 13.143 l-4.2857 4.2857 l-17.143 0 l-4.2857 -4.2857 l0 -20 l4.2857 -4.2857 l17.143 0 l4.2857 4.2857 l0 4.2857 l-5.4286 0 z M175.143 17.714 l-16.857 0 l0 4.8571 l14.571 0 l0 6.2857 l-14.571 0 l0 4.8571 l16.857 0 l0 6.2857 l-20 0 l-4.2857 -4.2857 l0 -24.286 l24.286 0 l0 6.2857 z M198.571 11.428999999999998 l7.4286 0 l0 28.571 l-6.5714 0 l-11.143 -16 l0 16 l-7.4286 0 l0 -28.571 l6.5714 0 l11.143 15.886 l0 -15.886 z"/></g><g id="SvgjsG4938" fill="#111" featurekey="nameFeature-1" transform="matrix(0.6949518843445007,0,0,0.6949518843445007,98.00719168739076,51.05815516590794)"><path id="path12" d="M1.4286 23.143 l14.286 0 l0 5.1429 l-14.286 0 l0 -5.1429 z M55.14257142857143 11.428999999999998 l4.2857 4.2857 l0 20 l-4.2857 4.2857 l-20.857 0 l0 -28.571 l20.857 0 z M51.99957142857143 33.7143 l0 -16 l-10.286 0 l0 16 l10.286 0 z M89.42871428571428 17.714 l-16.857 0 l0 4.8571 l14.571 0 l0 6.2857 l-14.571 0 l0 4.8571 l16.857 0 l0 6.2857 l-20 0 l-4.2857 -4.2857 l0 -24.286 l24.286 0 l0 6.2857 z M113.71471428571428 11.428999999999998 l6.8571 0 l0 3.4286 l-9.5429 25.143 l-7.7143 0 l-9.6 -25.143 l0 -3.4286 l6.8571 0 l6.5714 18.571 z M149.14299999999997 17.714 l-16.857 0 l0 4.8571 l14.571 0 l0 6.2857 l-14.571 0 l0 4.8571 l16.857 0 l0 6.2857 l-20 0 l-4.2857 -4.2857 l0 -24.286 l24.286 0 l0 6.2857 z M154.8571 35.7143 l0 -24.286 l7.4286 0 l0 22.286 l15.429 0 l0 6.2857 l-18.571 0 z M202.85685714285714 11.428999999999998 l4.2857 4.2857 l0 20 l-4.2857 4.2857 l-16.571 0 l-4.2857 -4.2857 l0 -20 l4.2857 -4.2857 l16.571 0 z M199.71385714285714 33.7143 l0 -16 l-10.286 0 l0 16 l10.286 0 z M212.8571 40 l0 -28.571 l20.857 0 l4.2857 4.2857 l0 12 l-4.2857 4.2857 l-13.429 0 l0 8 l-7.4286 0 z M220.286 25.714 l10.286 0 l0 -8 l-10.286 0 l0 8 z M264.8571428571429 11.428999999999998 l7.4286 0 l0 28.571 l-7.4286 0 l0 -16 l-5.0286 9.7143 l-3.7143 0 l-4.9714 -9.7143 l0 16 l-7.4286 0 l0 -28.571 l7.4286 0 l6.8571 12.971 z M302.28585714285714 17.714 l-16.857 0 l0 4.8571 l14.571 0 l0 6.2857 l-14.571 0 l0 4.8571 l16.857 0 l0 6.2857 l-20 0 l-4.2857 -4.2857 l0 -24.286 l24.286 0 l0 6.2857 z M325.7138571428572 11.428999999999998 l7.4286 0 l0 28.571 l-6.5714 0 l-11.143 -16 l0 16 l-7.4286 0 l0 -28.571 l6.5714 0 l11.143 15.886 l0 -15.886 z M336.85714 17.714 l0 -6.2857 l24.286 0 l0 6.2857 l-8.4571 0 l0 22.286 l-7.4286 0 l0 -22.286 l-8.4 0 z M377.7143142857143 23.143 l14.286 0 l0 5.1429 l-14.286 0 l0 -5.1429 z"/></g></svg>